<svg width="25" height="24" viewBox="0 0 25 24" fill="none" xmlns="http://www.w3.org/2000/svg">
<path d="M9.25 22H15.25C20.25 22 22.25 20 22.25 15V9C22.25 4 20.25 2 15.25 2H9.25C4.25 2 2.25 4 2.25 9V15C2.25 20 4.25 22 9.25 22Z" stroke="#667085" stroke-width="1.5" stroke-linecap="round" stroke-linejoin="round"/>
<path d="M9.25 22H15.25C20.25 22 22.25 20 22.25 15V9C22.25 4 20.25 2 15.25 2H9.25C4.25 2 2.25 4 2.25 9V15C2.25 20 4.25 22 9.25 22Z" stroke="black" stroke-opacity="0.2" stroke-width="1.5" stroke-linecap="round" stroke-linejoin="round"/>
<path d="M16 9H8.5" stroke="#667085" stroke-width="1.5" stroke-linecap="round" stroke-linejoin="round"/>
<path d="M16 9H8.5" stroke="black" stroke-opacity="0.2" stroke-width="1.5" stroke-linecap="round" stroke-linejoin="round"/>
<path d="M16 15H8.5" stroke="#667085" stroke-width="1.5" stroke-linecap="round" stroke-linejoin="round"/>
<path d="M16 15H8.5" stroke="black" stroke-opacity="0.2" stroke-width="1.5" stroke-linecap="round" stroke-linejoin="round"/>
</svg>
