<svg width="25" height="24" viewBox="0 0 25 24" fill="none" xmlns="http://www.w3.org/2000/svg" >
<path d="M12.75 5.56006H22.75" stroke="#667085" stroke-width="1.5" stroke-miterlimit="10" stroke-linecap="round" stroke-linejoin="round"/>
<path d="M12.75 5.56006H22.75" stroke="black" stroke-opacity="0.2" stroke-width="1.5" stroke-miterlimit="10" stroke-linecap="round" stroke-linejoin="round"/>
<path d="M14.97 2H20.53C22.31 2 22.75 2.44 22.75 4.2V8.31C22.75 10.07 22.31 10.51 20.53 10.51H14.97C13.19 10.51 12.75 10.07 12.75 8.31V4.2C12.75 2.44 13.19 2 14.97 2Z" stroke="#667085" stroke-width="1.5" stroke-linecap="round" stroke-linejoin="round"/>
<path d="M14.97 2H20.53C22.31 2 22.75 2.44 22.75 4.2V8.31C22.75 10.07 22.31 10.51 20.53 10.51H14.97C13.19 10.51 12.75 10.07 12.75 8.31V4.2C12.75 2.44 13.19 2 14.97 2Z" stroke="black" stroke-opacity="0.2" stroke-width="1.5" stroke-linecap="round" stroke-linejoin="round"/>
<path d="M2.75 17.0601H12.75" stroke="#667085" stroke-width="1.5" stroke-miterlimit="10" stroke-linecap="round" stroke-linejoin="round"/>
<path d="M2.75 17.0601H12.75" stroke="black" stroke-opacity="0.2" stroke-width="1.5" stroke-miterlimit="10" stroke-linecap="round" stroke-linejoin="round"/>
<path d="M4.97 13.5H10.53C12.31 13.5 12.75 13.94 12.75 15.7V19.81C12.75 21.57 12.31 22.01 10.53 22.01H4.97C3.19 22.01 2.75 21.57 2.75 19.81V15.7C2.75 13.94 3.19 13.5 4.97 13.5Z" stroke="#667085" stroke-width="1.5" stroke-linecap="round" stroke-linejoin="round"/>
<path d="M4.97 13.5H10.53C12.31 13.5 12.75 13.94 12.75 15.7V19.81C12.75 21.57 12.31 22.01 10.53 22.01H4.97C3.19 22.01 2.75 21.57 2.75 19.81V15.7C2.75 13.94 3.19 13.5 4.97 13.5Z" stroke="black" stroke-opacity="0.2" stroke-width="1.5" stroke-linecap="round" stroke-linejoin="round"/>
<path d="M22.75 15C22.75 18.87 19.62 22 15.75 22L16.8 20.25" stroke="#667085" stroke-width="1.5" stroke-linecap="round" stroke-linejoin="round"/>
<path d="M22.75 15C22.75 18.87 19.62 22 15.75 22L16.8 20.25" stroke="black" stroke-opacity="0.2" stroke-width="1.5" stroke-linecap="round" stroke-linejoin="round"/>
<path d="M2.75 9C2.75 5.13 5.88 2 9.75 2L8.70001 3.75" stroke="#667085" stroke-width="1.5" stroke-linecap="round" stroke-linejoin="round"/>
<path d="M2.75 9C2.75 5.13 5.88 2 9.75 2L8.70001 3.75" stroke="black" stroke-opacity="0.2" stroke-width="1.5" stroke-linecap="round" stroke-linejoin="round"/>
</svg>
