<svg width="24" height="25" viewBox="0 0 24 25" fill="none" xmlns="http://www.w3.org/2000/svg">
<path d="M18.8101 6.74998H20.1701C19.9801 6.47998 19.7801 6.22998 19.5701 5.97998L18.8101 6.74998Z" fill="#026AA2"/>
<path d="M18.52 4.91982C18.27 4.70982 18.02 4.50982 17.75 4.31982V5.67982L18.52 4.91982Z" fill="#026AA2"/>
<path d="M19.58 5.97994L22.53 3.02994C22.82 2.73994 22.82 2.25994 22.53 1.96994C22.24 1.67994 21.76 1.67994 21.47 1.96994L18.52 4.91994C18.9 5.24994 19.25 5.60994 19.58 5.97994Z" fill="#026AA2"/>
<path d="M17.7498 3.5C17.7498 3.09 17.4098 2.75 16.9998 2.75C16.5998 2.75 16.2798 3.07 16.2598 3.46C16.7798 3.71 17.2798 3.99 17.7498 4.32V3.5Z" fill="#026AA2"/>
<path d="M21.7499 7.5C21.7499 7.09 21.4099 6.75 20.9999 6.75H20.1699C20.4999 7.22 20.7899 7.72 21.0299 8.24C21.4299 8.22 21.7499 7.9 21.7499 7.5Z" fill="#026AA2"/>
<path d="M12.75 15.2498H13.05C13.44 15.2498 13.75 14.8998 13.75 14.4698C13.75 13.9298 13.6 13.8498 13.26 13.7298L12.75 13.5498V15.2498Z" fill="#026AA2"/>
<path d="M21.04 8.24C21.03 8.24 21.02 8.25 21 8.25H17C16.9 8.25 16.81 8.23 16.71 8.19C16.53 8.11 16.38 7.97 16.3 7.78C16.27 7.69 16.25 7.6 16.25 7.5V3.5C16.25 3.49 16.26 3.48 16.26 3.46C14.96 2.85 13.52 2.5 12 2.5C6.48 2.5 2 6.98 2 12.5C2 18.02 6.48 22.5 12 22.5C17.52 22.5 22 18.02 22 12.5C22 10.98 21.65 9.54 21.04 8.24ZM13.75 12.32C14.39 12.54 15.25 13.01 15.25 14.48C15.25 15.73 14.26 16.76 13.05 16.76H12.75V17.01C12.75 17.42 12.41 17.76 12 17.76C11.59 17.76 11.25 17.42 11.25 17.01V16.76H11.17C9.84 16.76 8.75 15.64 8.75 14.26C8.75 13.84 9.09 13.5 9.5 13.5C9.91 13.5 10.25 13.84 10.25 14.25C10.25 14.8 10.66 15.25 11.17 15.25H11.25V13.03L10.25 12.68C9.61 12.46 8.75 11.99 8.75 10.52C8.75 9.27 9.74 8.24 10.95 8.24H11.25V8C11.25 7.59 11.59 7.25 12 7.25C12.41 7.25 12.75 7.59 12.75 8V8.25H12.83C14.16 8.25 15.25 9.37 15.25 10.75C15.25 11.16 14.91 11.5 14.5 11.5C14.09 11.5 13.75 11.16 13.75 10.75C13.75 10.2 13.34 9.75 12.83 9.75H12.75V11.97L13.75 12.32Z" fill="#026AA2"/>
<path d="M10.25 10.53C10.25 11.07 10.4 11.15 10.74 11.27L11.25 11.45V9.75H10.95C10.57 9.75 10.25 10.1 10.25 10.53Z" fill="#026AA2"/>
</svg>
