<svg width="20" height="21" viewBox="0 0 20 21" fill="none" xmlns="http://www.w3.org/2000/svg">
<path d="M13.75 8.41666L10.25 11.9167L8.91667 9.91666L6.25 12.5833" stroke="#667085" stroke-width="1.5" stroke-linecap="round" stroke-linejoin="round"/>
<path d="M13.75 8.41666L10.25 11.9167L8.91667 9.91666L6.25 12.5833" stroke="black" stroke-opacity="0.2" stroke-width="1.5" stroke-linecap="round" stroke-linejoin="round"/>
<path d="M12.083 8.41666H13.7497V10.0833" stroke="#667085" stroke-width="1.5" stroke-linecap="round" stroke-linejoin="round"/>
<path d="M12.083 8.41666H13.7497V10.0833" stroke="black" stroke-opacity="0.2" stroke-width="1.5" stroke-linecap="round" stroke-linejoin="round"/>
<path d="M7.50033 18.8333H12.5003C16.667 18.8333 18.3337 17.1667 18.3337 13V7.99999C18.3337 3.83332 16.667 2.16666 12.5003 2.16666H7.50033C3.33366 2.16666 1.66699 3.83332 1.66699 7.99999V13C1.66699 17.1667 3.33366 18.8333 7.50033 18.8333Z" stroke="#667085" stroke-width="1.5" stroke-linecap="round" stroke-linejoin="round"/>
<path d="M7.50033 18.8333H12.5003C16.667 18.8333 18.3337 17.1667 18.3337 13V7.99999C18.3337 3.83332 16.667 2.16666 12.5003 2.16666H7.50033C3.33366 2.16666 1.66699 3.83332 1.66699 7.99999V13C1.66699 17.1667 3.33366 18.8333 7.50033 18.8333Z" stroke="black" stroke-opacity="0.2" stroke-width="1.5" stroke-linecap="round" stroke-linejoin="round"/>
</svg>
