<svg width="20" height="20" viewBox="0 0 20 20" fill="none" xmlns="http://www.w3.org/2000/svg">
<path d="M8.95982 14.0503V15.742C8.95982 17.1753 7.62648 18.3336 5.98481 18.3336C4.34315 18.3336 3.00146 17.1753 3.00146 15.742V14.0503C3.00146 15.4836 4.33481 16.5003 5.98481 16.5003C7.62648 16.5003 8.95982 15.4753 8.95982 14.0503Z" stroke="#667085" stroke-width="1.5" stroke-linecap="round" stroke-linejoin="round"/>
<path d="M8.95982 14.0503V15.742C8.95982 17.1753 7.62648 18.3336 5.98481 18.3336C4.34315 18.3336 3.00146 17.1753 3.00146 15.742V14.0503C3.00146 15.4836 4.33481 16.5003 5.98481 16.5003C7.62648 16.5003 8.95982 15.4753 8.95982 14.0503Z" stroke="black" stroke-opacity="0.2" stroke-width="1.5" stroke-linecap="round" stroke-linejoin="round"/>
<path d="M8.95834 11.7581C8.95834 12.1748 8.84167 12.5581 8.64167 12.8914C8.15001 13.6998 7.14166 14.2081 5.975 14.2081C4.80833 14.2081 3.79999 13.6914 3.30832 12.8914C3.10832 12.5581 2.9917 12.1748 2.9917 11.7581C2.9917 11.0415 3.32501 10.3998 3.85835 9.93312C4.40001 9.45812 5.14165 9.1748 5.96665 9.1748C6.79165 9.1748 7.53335 9.46645 8.07501 9.93312C8.62501 10.3914 8.95834 11.0415 8.95834 11.7581Z" stroke="#667085" stroke-width="1.5" stroke-linecap="round" stroke-linejoin="round"/>
<path d="M8.95834 11.7581C8.95834 12.1748 8.84167 12.5581 8.64167 12.8914C8.15001 13.6998 7.14166 14.2081 5.975 14.2081C4.80833 14.2081 3.79999 13.6914 3.30832 12.8914C3.10832 12.5581 2.9917 12.1748 2.9917 11.7581C2.9917 11.0415 3.32501 10.3998 3.85835 9.93312C4.40001 9.45812 5.14165 9.1748 5.96665 9.1748C6.79165 9.1748 7.53335 9.46645 8.07501 9.93312C8.62501 10.3914 8.95834 11.0415 8.95834 11.7581Z" stroke="black" stroke-opacity="0.2" stroke-width="1.5" stroke-linecap="round" stroke-linejoin="round"/>
<path d="M8.95982 11.7582V14.0498C8.95982 15.4832 7.62648 16.4998 5.98481 16.4998C4.34315 16.4998 3.00146 15.4748 3.00146 14.0498V11.7582C3.00146 10.3248 4.33481 9.1665 5.98481 9.1665C6.80981 9.1665 7.5515 9.45815 8.09317 9.92481C8.6265 10.3915 8.95982 11.0415 8.95982 11.7582Z" stroke="#667085" stroke-width="1.5" stroke-linecap="round" stroke-linejoin="round"/>
<path d="M8.95982 11.7582V14.0498C8.95982 15.4832 7.62648 16.4998 5.98481 16.4998C4.34315 16.4998 3.00146 15.4748 3.00146 14.0498V11.7582C3.00146 10.3248 4.33481 9.1665 5.98481 9.1665C6.80981 9.1665 7.5515 9.45815 8.09317 9.92481C8.6265 10.3915 8.95982 11.0415 8.95982 11.7582Z" stroke="black" stroke-opacity="0.2" stroke-width="1.5" stroke-linecap="round" stroke-linejoin="round"/>
<path d="M18.3333 9.14147V10.8582C18.3333 11.3165 17.9667 11.6915 17.5 11.7082H15.8667C14.9667 11.7082 14.1417 11.0498 14.0667 10.1498C14.0167 9.62482 14.2167 9.13315 14.5667 8.79148C14.875 8.47482 15.3 8.2915 15.7667 8.2915H17.5C17.9667 8.30817 18.3333 8.68314 18.3333 9.14147Z" stroke="#667085" stroke-width="1.5" stroke-linecap="round" stroke-linejoin="round"/>
<path d="M18.3333 9.14147V10.8582C18.3333 11.3165 17.9667 11.6915 17.5 11.7082H15.8667C14.9667 11.7082 14.1417 11.0498 14.0667 10.1498C14.0167 9.62482 14.2167 9.13315 14.5667 8.79148C14.875 8.47482 15.3 8.2915 15.7667 8.2915H17.5C17.9667 8.30817 18.3333 8.68314 18.3333 9.14147Z" stroke="black" stroke-opacity="0.2" stroke-width="1.5" stroke-linecap="round" stroke-linejoin="round"/>
<path d="M1.6665 8.74984V7.08317C1.6665 4.8165 3.03317 3.23317 5.15817 2.9665C5.37484 2.93317 5.59984 2.9165 5.83317 2.9165H13.3332C13.5498 2.9165 13.7582 2.92483 13.9582 2.95816C16.1082 3.20816 17.4998 4.79984 17.4998 7.08317V8.29151H15.7665C15.2998 8.29151 14.8748 8.47483 14.5665 8.79149C14.2165 9.13316 14.0165 9.62483 14.0665 10.1498C14.1415 11.0498 14.9665 11.7082 15.8665 11.7082H17.4998V12.9165C17.4998 15.4165 15.8332 17.0832 13.3332 17.0832H11.2498" stroke="#667085" stroke-width="1.5" stroke-linecap="round" stroke-linejoin="round"/>
<path d="M1.6665 8.74984V7.08317C1.6665 4.8165 3.03317 3.23317 5.15817 2.9665C5.37484 2.93317 5.59984 2.9165 5.83317 2.9165H13.3332C13.5498 2.9165 13.7582 2.92483 13.9582 2.95816C16.1082 3.20816 17.4998 4.79984 17.4998 7.08317V8.29151H15.7665C15.2998 8.29151 14.8748 8.47483 14.5665 8.79149C14.2165 9.13316 14.0165 9.62483 14.0665 10.1498C14.1415 11.0498 14.9665 11.7082 15.8665 11.7082H17.4998V12.9165C17.4998 15.4165 15.8332 17.0832 13.3332 17.0832H11.2498" stroke="black" stroke-opacity="0.2" stroke-width="1.5" stroke-linecap="round" stroke-linejoin="round"/>
</svg>
